<mxfile host="app.diagrams.net" modified="2020-11-02T10:18:24.653Z" agent="5.0 (Macintosh; Intel Mac OS X 10_15_3) AppleWebKit/537.36 (KHTML, like Gecko) Chrome/86.0.4240.111 Safari/537.36" etag="arYFEUQMn0k48bL7goLK" version="13.8.5" type="github">
  <diagram id="J1KZAvtNiffS87ceZdx8" name="第 1 页">
    <mxGraphModel dx="906" dy="623" grid="1" gridSize="10" guides="1" tooltips="1" connect="1" arrows="1" fold="1" page="1" pageScale="1" pageWidth="827" pageHeight="1169" math="0" shadow="0">
      <root>
        <mxCell id="0" />
        <mxCell id="1" parent="0" />
        <mxCell id="F979-E6iUQ5ilNzPUMvw-2" value="订单" style="rounded=0;whiteSpace=wrap;html=1;" vertex="1" parent="1">
          <mxGeometry x="140" y="110" width="380" height="60" as="geometry" />
        </mxCell>
        <mxCell id="F979-E6iUQ5ilNzPUMvw-3" value="运单" style="rounded=0;whiteSpace=wrap;html=1;" vertex="1" parent="1">
          <mxGeometry x="140" y="190" width="120" height="60" as="geometry" />
        </mxCell>
        <mxCell id="F979-E6iUQ5ilNzPUMvw-5" value="" style="endArrow=none;html=1;" edge="1" parent="1">
          <mxGeometry width="50" height="50" relative="1" as="geometry">
            <mxPoint x="110" y="270" as="sourcePoint" />
            <mxPoint x="590" y="270" as="targetPoint" />
          </mxGeometry>
        </mxCell>
        <mxCell id="F979-E6iUQ5ilNzPUMvw-6" value="过磅单" style="rounded=0;whiteSpace=wrap;html=1;" vertex="1" parent="1">
          <mxGeometry x="140" y="300" width="120" height="60" as="geometry" />
        </mxCell>
        <mxCell id="F979-E6iUQ5ilNzPUMvw-10" style="edgeStyle=orthogonalEdgeStyle;rounded=0;orthogonalLoop=1;jettySize=auto;html=1;exitX=0.5;exitY=0.5;exitDx=0;exitDy=0;exitPerimeter=0;entryX=1;entryY=0.5;entryDx=0;entryDy=0;" edge="1" parent="1" source="F979-E6iUQ5ilNzPUMvw-7">
          <mxGeometry relative="1" as="geometry">
            <mxPoint x="520" y="220" as="targetPoint" />
          </mxGeometry>
        </mxCell>
        <mxCell id="F979-E6iUQ5ilNzPUMvw-7" value="司机" style="shape=umlActor;verticalLabelPosition=bottom;verticalAlign=top;html=1;outlineConnect=0;" vertex="1" parent="1">
          <mxGeometry x="640" y="190" width="30" height="60" as="geometry" />
        </mxCell>
        <mxCell id="F979-E6iUQ5ilNzPUMvw-12" style="edgeStyle=orthogonalEdgeStyle;rounded=0;orthogonalLoop=1;jettySize=auto;html=1;exitX=0.5;exitY=0.5;exitDx=0;exitDy=0;exitPerimeter=0;entryX=1;entryY=0.5;entryDx=0;entryDy=0;" edge="1" parent="1" source="F979-E6iUQ5ilNzPUMvw-8" target="F979-E6iUQ5ilNzPUMvw-2">
          <mxGeometry relative="1" as="geometry" />
        </mxCell>
        <mxCell id="F979-E6iUQ5ilNzPUMvw-8" value="企业/货主" style="shape=umlActor;verticalLabelPosition=bottom;verticalAlign=top;html=1;outlineConnect=0;" vertex="1" parent="1">
          <mxGeometry x="580" y="110" width="30" height="60" as="geometry" />
        </mxCell>
        <mxCell id="F979-E6iUQ5ilNzPUMvw-17" value="" style="endArrow=classic;startArrow=classic;html=1;entryX=0.5;entryY=0;entryDx=0;entryDy=0;" edge="1" parent="1" source="F979-E6iUQ5ilNzPUMvw-3" target="F979-E6iUQ5ilNzPUMvw-6">
          <mxGeometry width="50" height="50" relative="1" as="geometry">
            <mxPoint x="200" y="300" as="sourcePoint" />
            <mxPoint x="200" y="320.71067811865476" as="targetPoint" />
          </mxGeometry>
        </mxCell>
        <mxCell id="F979-E6iUQ5ilNzPUMvw-18" value="运单" style="rounded=0;whiteSpace=wrap;html=1;" vertex="1" parent="1">
          <mxGeometry x="270" y="190" width="120" height="60" as="geometry" />
        </mxCell>
        <mxCell id="F979-E6iUQ5ilNzPUMvw-19" value="过磅单" style="rounded=0;whiteSpace=wrap;html=1;" vertex="1" parent="1">
          <mxGeometry x="270" y="300" width="120" height="60" as="geometry" />
        </mxCell>
        <mxCell id="F979-E6iUQ5ilNzPUMvw-20" value="" style="endArrow=classic;startArrow=classic;html=1;entryX=0.5;entryY=0;entryDx=0;entryDy=0;" edge="1" parent="1" source="F979-E6iUQ5ilNzPUMvw-18" target="F979-E6iUQ5ilNzPUMvw-19">
          <mxGeometry width="50" height="50" relative="1" as="geometry">
            <mxPoint x="330" y="300" as="sourcePoint" />
            <mxPoint x="330" y="320.71067811865476" as="targetPoint" />
          </mxGeometry>
        </mxCell>
        <mxCell id="F979-E6iUQ5ilNzPUMvw-21" value="运单" style="rounded=0;whiteSpace=wrap;html=1;" vertex="1" parent="1">
          <mxGeometry x="400" y="190" width="120" height="60" as="geometry" />
        </mxCell>
        <mxCell id="F979-E6iUQ5ilNzPUMvw-22" value="过磅单" style="rounded=0;whiteSpace=wrap;html=1;" vertex="1" parent="1">
          <mxGeometry x="400" y="300" width="120" height="60" as="geometry" />
        </mxCell>
        <mxCell id="F979-E6iUQ5ilNzPUMvw-23" value="" style="endArrow=classic;startArrow=classic;html=1;entryX=0.5;entryY=0;entryDx=0;entryDy=0;" edge="1" parent="1" source="F979-E6iUQ5ilNzPUMvw-21" target="F979-E6iUQ5ilNzPUMvw-22">
          <mxGeometry width="50" height="50" relative="1" as="geometry">
            <mxPoint x="460" y="300" as="sourcePoint" />
            <mxPoint x="460" y="320.71067811865476" as="targetPoint" />
          </mxGeometry>
        </mxCell>
        <mxCell id="F979-E6iUQ5ilNzPUMvw-24" value="&lt;h1&gt;接口&lt;/h1&gt;&lt;p&gt;1.&amp;nbsp;&lt;span&gt;云智磅提取物流系统运单信息&lt;/span&gt;&lt;/p&gt;&lt;p&gt;&lt;span&gt;2. 过磅完成后，回传物流系统&lt;/span&gt;&lt;/p&gt;" style="text;html=1;strokeColor=none;fillColor=none;spacing=5;spacingTop=-20;whiteSpace=wrap;overflow=hidden;rounded=0;" vertex="1" parent="1">
          <mxGeometry x="560" y="300" width="190" height="120" as="geometry" />
        </mxCell>
        <mxCell id="F979-E6iUQ5ilNzPUMvw-25" value="微派联运" style="text;html=1;strokeColor=none;fillColor=none;align=center;verticalAlign=middle;whiteSpace=wrap;rounded=0;" vertex="1" parent="1">
          <mxGeometry x="60" y="160" width="50" height="40" as="geometry" />
        </mxCell>
        <mxCell id="F979-E6iUQ5ilNzPUMvw-27" value="云智磅" style="text;html=1;strokeColor=none;fillColor=none;align=center;verticalAlign=middle;whiteSpace=wrap;rounded=0;" vertex="1" parent="1">
          <mxGeometry x="60" y="310" width="50" height="40" as="geometry" />
        </mxCell>
        <mxCell id="F979-E6iUQ5ilNzPUMvw-53" value="Pool" style="swimlane;html=1;childLayout=stackLayout;resizeParent=1;resizeParentMax=0;startSize=20;horizontal=0;horizontalStack=1;" vertex="1" parent="1">
          <mxGeometry x="70" y="460" width="530" height="480" as="geometry" />
        </mxCell>
        <mxCell id="F979-E6iUQ5ilNzPUMvw-54" value="物流系统" style="swimlane;html=1;startSize=20;" vertex="1" parent="F979-E6iUQ5ilNzPUMvw-53">
          <mxGeometry x="20" width="170" height="480" as="geometry" />
        </mxCell>
        <mxCell id="F979-E6iUQ5ilNzPUMvw-59" value="运单" style="rounded=0;whiteSpace=wrap;html=1;" vertex="1" parent="F979-E6iUQ5ilNzPUMvw-54">
          <mxGeometry x="25" y="60" width="120" height="60" as="geometry" />
        </mxCell>
        <mxCell id="F979-E6iUQ5ilNzPUMvw-55" value="过磅单" style="swimlane;html=1;startSize=20;" vertex="1" parent="F979-E6iUQ5ilNzPUMvw-53">
          <mxGeometry x="190" width="170" height="480" as="geometry" />
        </mxCell>
        <mxCell id="F979-E6iUQ5ilNzPUMvw-60" value="过磅单" style="rounded=0;whiteSpace=wrap;html=1;" vertex="1" parent="F979-E6iUQ5ilNzPUMvw-55">
          <mxGeometry x="25" y="60" width="120" height="60" as="geometry" />
        </mxCell>
        <mxCell id="F979-E6iUQ5ilNzPUMvw-56" value="Lane 3" style="swimlane;html=1;startSize=20;" vertex="1" parent="F979-E6iUQ5ilNzPUMvw-53">
          <mxGeometry x="360" width="170" height="480" as="geometry" />
        </mxCell>
      </root>
    </mxGraphModel>
  </diagram>
</mxfile>
